<svg width="48" height="48" viewBox="0 0 48 48" fill="none" xmlns="http://www.w3.org/2000/svg">
<path d="M24 32C21.7 32 19.55 32.35 17.55 33.05C15.55 33.75 13.7 34.7333 12 36V40H36V36C34.3 34.7333 32.45 33.75 30.45 33.05C28.45 32.35 26.3 32 24 32ZM12 44C10.9 44 9.95833 43.6083 9.175 42.825C8.39167 42.0417 8 41.1 8 40V8C8 6.9 8.39167 5.95833 9.175 5.175C9.95833 4.39167 10.9 4 12 4H36C37.1 4 38.0417 4.39167 38.825 5.175C39.6083 5.95833 40 6.9 40 8V40C40 41.1 39.6083 42.0417 38.825 42.825C38.0417 43.6083 37.1 44 36 44H12ZM24 28C25.9333 28 27.5833 27.3167 28.95 25.95C30.3167 24.5833 31 22.9333 31 21C31 19.0667 30.3167 17.4167 28.95 16.05C27.5833 14.6833 25.9333 14 24 14C22.0667 14 20.4167 14.6833 19.05 16.05C17.6833 17.4167 17 19.0667 17 21C17 22.9333 17.6833 24.5833 19.05 25.95C20.4167 27.3167 22.0667 28 24 28Z" fill="black"/>
</svg>
