<svg width="48" height="35" viewBox="0 0 48 35" fill="none" xmlns="http://www.w3.org/2000/svg">
<path d="M11.974 34.8333C8.67205 34.8333 5.85127 33.6904 3.51164 31.4044C1.17054 29.1185 0 26.3246 0 23.0227C0 20.1924 0.852691 17.6707 2.55807 15.4573C4.26345 13.2439 6.49497 11.8288 9.2526 11.212C10.1597 7.87378 11.974 5.17057 14.6953 3.10234C17.4167 1.03411 20.5009 0 23.9479 0C28.1932 0 31.7941 1.47824 34.7506 4.43472C37.7085 7.39265 39.1875 10.9943 39.1875 15.2396C41.6911 15.5299 43.7688 16.609 45.4205 18.4769C47.0707 20.3463 47.8958 22.5328 47.8958 25.0365C47.8958 27.7578 46.9437 30.0713 45.0395 31.977C43.1338 33.8812 40.8203 34.8333 38.099 34.8333H26.125V19.2672L28.0844 21.1721C28.4835 21.5713 28.9828 21.7708 29.5822 21.7708C30.1802 21.7708 30.6969 21.5531 31.1323 21.1177C31.5314 20.7186 31.731 20.2106 31.731 19.5938C31.731 18.9769 31.5314 18.4689 31.1323 18.0698L25.4719 12.4094C25.0365 11.974 24.5285 11.7562 23.9479 11.7562C23.3674 11.7562 22.8594 11.974 22.424 12.4094L16.7635 18.0698C16.3644 18.4689 16.1561 18.9675 16.1387 19.5654C16.1199 20.1649 16.3281 20.6823 16.7635 21.1177C17.1627 21.5168 17.6612 21.7258 18.2592 21.7447C18.8586 21.7621 19.376 21.5713 19.8115 21.1721L21.7708 19.2672V34.8333H11.974Z" fill="black"/>
</svg>
